<svg width="117" height="27" viewBox="0 0 117 27" fill="none" xmlns="http://www.w3.org/2000/svg">
<path d="M17.6629 21.3718H6.48918L4.56931 26.7718H0L9.56099 0.304226H14.6295L24.1904 26.7718H19.5827L17.6629 21.3718ZM16.4341 17.8352L12.0952 5.55211L7.71791 17.8352H16.4341Z" fill="#37782C"/>
<path d="M47.6615 7.94789C46.9704 6.62958 46.0104 5.64084 44.7817 4.98169C43.553 4.29718 42.1323 3.95493 40.5196 3.95493C38.7533 3.95493 37.179 4.34789 35.7967 5.1338C34.4144 5.91972 33.3265 7.03521 32.5329 8.48028C31.765 9.92535 31.381 11.5986 31.381 13.5C31.381 15.4014 31.765 17.0873 32.5329 18.5577C33.3265 20.0028 34.4144 21.1183 35.7967 21.9042C37.179 22.6901 38.7533 23.0831 40.5196 23.0831C42.9002 23.0831 44.8329 22.4239 46.3176 21.1056C47.8023 19.7873 48.7111 18 49.0439 15.7437H39.0221V12.2831H53.7284V15.6676C53.4468 17.7211 52.7044 19.6099 51.5013 21.3338C50.3238 23.0577 48.7751 24.4394 46.8552 25.4789C44.9609 26.493 42.8491 27 40.5196 27C38.011 27 35.7199 26.4296 33.6464 25.2887C31.573 24.1225 29.9219 22.5127 28.6932 20.4592C27.49 18.4056 26.8885 16.0859 26.8885 13.5C26.8885 10.9141 27.49 8.59437 28.6932 6.54085C29.9219 4.48732 31.573 2.89014 33.6464 1.7493C35.7455 0.583099 38.0366 0 40.5196 0C43.361 0 45.8825 0.697183 48.0839 2.09155C50.311 3.46056 51.9237 5.41268 52.922 7.94789H47.6615Z" fill="#37782C"/>
<path d="M71.9072 26.7718L65.7636 16.2H62.423V26.7718H58.0457V0.342254H67.2611C69.309 0.342254 71.0368 0.697183 72.4447 1.40704C73.8783 2.1169 74.9406 3.06761 75.6317 4.25916C76.3485 5.45071 76.7069 6.78169 76.7069 8.25211C76.7069 9.97606 76.1949 11.5479 75.171 12.9676C74.1726 14.362 72.6239 15.3127 70.5249 15.8197L77.1292 26.7718H71.9072ZM62.423 12.7394H67.2611C68.8994 12.7394 70.1281 12.3338 70.9472 11.5225C71.792 10.7113 72.2144 9.62113 72.2144 8.25211C72.2144 6.8831 71.8048 5.81831 70.9856 5.05775C70.1665 4.27183 68.925 3.87887 67.2611 3.87887H62.423V12.7394Z" fill="#37782C"/>
<path d="M106.633 3.84084V11.5986H115.848V15.1352H106.633V23.2352H117V26.7718H102.255V0.304226H117V3.84084H106.633Z" fill="#37782C"/>
<path d="M94.2492 13.5846C94.2492 15.6171 92.5856 17.2648 90.5333 17.2648C88.4811 17.2648 86.8175 15.6171 86.8175 13.5846C86.8175 11.5522 88.4811 9.9045 90.5333 9.9045C92.5856 9.9045 94.2492 11.5522 94.2492 13.5846Z" fill="#37782C"/>
</svg>
